<?xml version="1.0" encoding="utf-8"?>
<!-- Generator: Adobe Illustrator 16.0.0, SVG Export Plug-In . SVG Version: 6.00 Build 0)  -->
<!DOCTYPE svg PUBLIC "-//W3C//DTD SVG 1.0//EN" "http://www.w3.org/TR/2001/REC-SVG-20010904/DTD/svg10.dtd">
<svg version="1.0" id="Layer_1" xmlns="http://www.w3.org/2000/svg" xmlns:xlink="http://www.w3.org/1999/xlink" x="0px" y="0px"
	 width="59px" height="28.192px" viewBox="0 0 59 28.192" style="enable-background:new 0 0 59 28.192;" xml:space="preserve">
<path style="fill:#A87C4F;stroke:#603813;stroke-width:1.0933;stroke-linecap:round;stroke-linejoin:round;stroke-miterlimit:10;" d="
	M0.771,10.896l3.563,14.563c0,0,0.083,1.962,6,1.962s6-1.962,6-1.962l3.563-14.563H0.771z"/>
<path style="fill:#603813;stroke:#603813;stroke-width:1.0933;stroke-linecap:round;stroke-linejoin:round;stroke-miterlimit:10;" d="
	M4.309,10.896c0,0-0.55-2.019,3.692-2.026s1.492-2.575,1.492-2.575s8.603,2.313,6.579,4.602H4.309z"/>
<line style="fill:none;stroke:#603813;stroke-width:1.0933;stroke-linecap:round;stroke-miterlimit:10;" x1="1.215" y1="15.208" x2="19.451" y2="15.208"/>
<line style="fill:none;stroke:#603813;stroke-width:1.0933;stroke-linecap:round;stroke-miterlimit:10;" x1="1.451" y1="16.833" x2="19.215" y2="16.833"/>
<line style="fill:none;stroke:#603813;stroke-width:1.0933;stroke-linecap:round;stroke-linejoin:round;stroke-miterlimit:10;" x1="7.167" y1="6.965" x2="7.167" y2="3.964"/>
<line style="fill:none;stroke:#603813;stroke-width:1.0933;stroke-linecap:round;stroke-linejoin:round;stroke-miterlimit:10;" x1="10.333" y1="4.292" x2="10.333" y2="0.854"/>
<line style="fill:none;stroke:#603813;stroke-width:1.0933;stroke-linecap:round;stroke-linejoin:round;stroke-miterlimit:10;" x1="14.875" y1="5.896" x2="14.875" y2="2.031"/>
<line style="fill:none;stroke:#603813;stroke-width:1.0933;stroke-linecap:round;stroke-miterlimit:10;" x1="10.333" y1="12.725" x2="19.215" y2="23.024"/>
<circle style="fill:#603813;" cx="10.333" cy="12.725" r="0.915"/>
<g>
	<path style="fill:#3B2314;" d="M23.566,20.831c0.885,0.455,2.244,0.907,3.646,0.907c1.51,0,2.31-0.624,2.31-1.577
		c0-0.905-0.69-1.422-2.439-2.05c-2.415-0.843-3.992-2.179-3.992-4.296c0-2.479,2.073-4.38,5.503-4.38
		c1.641,0,2.849,0.348,3.713,0.734l-0.734,2.655c-0.584-0.279-1.62-0.691-3.044-0.691c-1.423,0-2.115,0.649-2.115,1.404
		c0,0.927,0.821,1.338,2.699,2.05c2.566,0.948,3.775,2.286,3.775,4.336c0,2.439-1.878,4.513-5.869,4.513
		c-1.661,0-3.302-0.432-4.122-0.887L23.566,20.831z"/>
	<path style="fill:#3B2314;" d="M35.118,9.868c0.863-0.173,2.61-0.304,4.251-0.304c2.007,0,3.237,0.196,4.294,0.822
		c1.014,0.538,1.747,1.533,1.747,2.848c0,1.296-0.755,2.504-2.395,3.106v0.046c1.661,0.452,2.892,1.704,2.892,3.581
		c0,1.318-0.604,2.352-1.511,3.087c-1.058,0.841-2.828,1.316-5.719,1.316c-1.618,0-2.827-0.107-3.561-0.218V9.868z M38.376,15.438
		h1.079c1.728,0,2.654-0.715,2.654-1.791c0-1.101-0.841-1.686-2.329-1.686c-0.713,0-1.123,0.044-1.404,0.086V15.438z M38.376,21.89
		c0.324,0.042,0.713,0.042,1.274,0.042c1.489,0,2.805-0.56,2.805-2.094c0-1.467-1.316-2.049-2.957-2.049h-1.122V21.89z"/>
	<path style="fill:#3B2314;" d="M58.411,23.809c-0.604,0.304-1.964,0.628-3.734,0.628c-5.028,0-7.617-3.131-7.617-7.273
		c0-4.965,3.539-7.728,7.942-7.728c1.704,0,2.998,0.348,3.581,0.649l-0.669,2.61c-0.669-0.28-1.598-0.54-2.762-0.54
		c-2.61,0-4.64,1.574-4.64,4.813c0,2.912,1.727,4.748,4.66,4.748c0.993,0,2.095-0.216,2.741-0.477L58.411,23.809z"/>
</g>
<g>
	<path style="fill:#3B2314;" d="M22.992,27.807c0.024-0.043,0.045-0.093,0.064-0.146c0.069-0.183,0.112-0.407,0.243-0.538
		c0.038-0.038,0.086-0.066,0.133-0.08v-0.008c-0.198-0.033-0.354-0.176-0.354-0.395c0-0.141,0.057-0.253,0.147-0.326
		c0.1-0.081,0.257-0.124,0.459-0.124c0.136,0,0.278,0.012,0.383,0.033v1.583H23.86v-0.695h-0.152c-0.1,0-0.173,0.021-0.23,0.079
		c-0.11,0.111-0.155,0.348-0.212,0.5c-0.017,0.04-0.029,0.073-0.053,0.116H22.992z M23.86,26.369
		c-0.036-0.008-0.102-0.02-0.195-0.02c-0.205,0-0.378,0.079-0.378,0.3c0,0.193,0.171,0.305,0.397,0.305c0.069,0,0.136,0,0.176-0.002
		V26.369z"/>
	<path style="fill:#3B2314;" d="M25.361,26.379h-0.488v-0.177h1.188v0.177H25.57v1.428h-0.209V26.379z"/>
	<path style="fill:#3B2314;" d="M27.132,27.055h-0.624v0.578h0.695v0.174h-0.902v-1.604h0.867v0.174h-0.659v0.507h0.624V27.055z"/>
	<path style="fill:#3B2314;" d="M28.433,26.202v0.174h-0.692v0.431c0.05-0.007,0.145-0.012,0.197-0.012
		c0.152,0,0.302,0.033,0.415,0.107c0.121,0.078,0.205,0.204,0.205,0.393c0,0.15-0.05,0.264-0.133,0.348
		c-0.131,0.128-0.348,0.179-0.566,0.179c-0.146,0-0.255-0.01-0.324-0.02v-1.6H28.433z M27.741,27.647
		c0.047,0.009,0.102,0.012,0.173,0.012c0.129,0,0.26-0.041,0.338-0.124c0.055-0.057,0.088-0.136,0.088-0.235
		c0-0.124-0.052-0.207-0.131-0.262c-0.083-0.058-0.19-0.081-0.305-0.081c-0.047,0-0.112,0.005-0.164,0.01V27.647z"/>
	<path style="fill:#3B2314;" d="M29.719,27.055h-0.624v0.578h0.695v0.174h-0.902v-1.604h0.867v0.174h-0.659v0.507h0.624V27.055z"/>
	<path style="fill:#3B2314;" d="M30.624,26.298c0.109-0.071,0.25-0.122,0.423-0.122c0.279,0,0.472,0.146,0.472,0.393
		c0,0.198-0.143,0.348-0.331,0.391v0.005c0.226,0.024,0.391,0.172,0.391,0.402c0,0.333-0.288,0.467-0.581,0.467
		c-0.145,0-0.297-0.031-0.419-0.104l0.055-0.162c0.086,0.05,0.229,0.098,0.359,0.098c0.238,0,0.369-0.129,0.369-0.305
		c0-0.24-0.231-0.31-0.436-0.31h-0.095v-0.157h0.095c0.212,0,0.376-0.131,0.376-0.295c0-0.162-0.114-0.253-0.288-0.253
		c-0.121,0-0.248,0.051-0.333,0.105L30.624,26.298z"/>
	<path style="fill:#3B2314;" d="M32.125,26.202v0.671h0.776v-0.671h0.209v1.604h-0.209v-0.752h-0.776v0.752h-0.208v-1.604H32.125z"
		/>
	<path style="fill:#3B2314;" d="M33.792,27.302l-0.167,0.505h-0.214l0.545-1.604h0.25l0.547,1.604h-0.221l-0.171-0.505H33.792z
		 M34.317,27.141l-0.157-0.462c-0.036-0.105-0.059-0.2-0.083-0.293h-0.005c-0.024,0.095-0.05,0.192-0.081,0.29l-0.157,0.465H34.317z
		"/>
	<path style="fill:#3B2314;" d="M35.246,26.202v0.676c0,0.255-0.005,0.465-0.019,0.679l0.005,0.002
		c0.081-0.166,0.181-0.34,0.297-0.53l0.519-0.826h0.207v1.604h-0.195v-0.684c0-0.259,0.002-0.449,0.019-0.651l-0.007-0.003
		c-0.079,0.176-0.188,0.362-0.298,0.54l-0.502,0.798h-0.222v-1.604H35.246z M35.508,25.866c0.01,0.074,0.034,0.148,0.146,0.148
		c0.109,0,0.136-0.069,0.145-0.148h0.16c-0.012,0.157-0.107,0.255-0.31,0.255c-0.195,0-0.288-0.098-0.3-0.255H35.508z"/>
	<path style="fill:#3B2314;" d="M37.777,26.202v1.436l0.14,0.005l-0.014,0.55h-0.162l-0.015-0.386h-1.011l-0.015,0.386h-0.162
		l-0.014-0.55l0.121-0.005c0.06-0.109,0.119-0.227,0.157-0.353c0.055-0.186,0.076-0.399,0.076-0.676v-0.407H37.777z M37.072,26.676
		c0,0.257-0.024,0.474-0.081,0.654c-0.033,0.112-0.083,0.22-0.131,0.305h0.709v-1.261h-0.498V26.676z"/>
	<path style="fill:#3B2314;" d="M38.291,26.202l0.319,0.684c0.04,0.095,0.078,0.188,0.116,0.283h0.005
		c0.029-0.084,0.06-0.177,0.1-0.291l0.25-0.676H39.3l-0.335,0.823c-0.088,0.215-0.188,0.46-0.3,0.609
		c-0.105,0.132-0.222,0.198-0.364,0.198c-0.052,0-0.09-0.005-0.117-0.015l0.021-0.169c0.017,0.005,0.041,0.007,0.076,0.007
		c0.167-0.002,0.264-0.161,0.314-0.275c0.017-0.036,0.012-0.06-0.007-0.098l-0.533-1.081H38.291z"/>
	<path style="fill:#3B2314;" d="M40.306,26.202v1.604h-0.207v-1.604H40.306z"/>
	<path style="fill:#3B2314;" d="M42.664,26.988c0,0.552-0.336,0.845-0.745,0.845c-0.424,0-0.722-0.329-0.722-0.814
		c0-0.509,0.316-0.843,0.745-0.843C42.381,26.176,42.664,26.512,42.664,26.988z M41.419,27.014c0,0.343,0.186,0.65,0.512,0.65
		c0.328,0,0.515-0.303,0.515-0.667c0-0.318-0.167-0.652-0.513-0.652C41.59,26.345,41.419,26.662,41.419,27.014z"/>
	<path style="fill:#3B2314;" d="M43.896,26.202v0.174h-0.693v0.431c0.05-0.007,0.146-0.012,0.198-0.012
		c0.152,0,0.302,0.033,0.414,0.107c0.121,0.078,0.204,0.204,0.204,0.393c0,0.15-0.05,0.264-0.133,0.348
		c-0.131,0.128-0.348,0.179-0.566,0.179c-0.146,0-0.255-0.01-0.324-0.02v-1.6H43.896z M43.202,27.647
		c0.048,0.009,0.103,0.012,0.174,0.012c0.129,0,0.26-0.041,0.338-0.124c0.055-0.057,0.089-0.136,0.089-0.235
		c0-0.124-0.053-0.207-0.131-0.262c-0.084-0.058-0.191-0.081-0.305-0.081c-0.048,0-0.112,0.005-0.165,0.01V27.647z"/>
	<path style="fill:#3B2314;" d="M44.557,26.202v1.604H44.35v-1.604H44.557z"/>
	<path style="fill:#3B2314;" d="M46.041,26.202v1.604h-0.209v-1.431h-0.531v0.485c0,0.348-0.015,0.736-0.24,0.889
		c-0.06,0.037-0.152,0.076-0.245,0.076l-0.026-0.167c0.064-0.012,0.131-0.05,0.169-0.086c0.129-0.126,0.141-0.438,0.141-0.695
		v-0.676H46.041z"/>
	<path style="fill:#3B2314;" d="M47.523,26.202v1.604h-0.209v-1.431h-0.531v0.485c0,0.348-0.015,0.736-0.24,0.889
		c-0.06,0.037-0.152,0.076-0.245,0.076l-0.026-0.167c0.064-0.012,0.131-0.05,0.169-0.086c0.129-0.126,0.141-0.438,0.141-0.695
		v-0.676H47.523z"/>
	<path style="fill:#3B2314;" d="M48.151,26.202v0.692h0.238c0.043-0.447,0.305-0.719,0.684-0.719c0.416,0,0.669,0.336,0.669,0.813
		c0,0.557-0.31,0.845-0.69,0.845c-0.389,0-0.65-0.295-0.667-0.765h-0.233v0.738h-0.207v-1.604H48.151z M49.53,26.997
		c0-0.318-0.15-0.654-0.467-0.654c-0.319,0-0.474,0.323-0.474,0.671c0,0.338,0.169,0.652,0.469,0.652
		C49.363,27.666,49.53,27.361,49.53,26.997z"/>
	<path style="fill:#3B2314;" d="M51.489,26.202v0.174h-0.646v1.431h-0.207v-1.604H51.489z"/>
	<path style="fill:#3B2314;" d="M51.936,26.202v1.604h-0.207v-1.604H51.936z"/>
	<path style="fill:#3B2314;" d="M52.358,26.224c0.091-0.019,0.233-0.033,0.379-0.033c0.207,0,0.34,0.036,0.44,0.116
		c0.083,0.063,0.133,0.157,0.133,0.283c0,0.155-0.103,0.291-0.271,0.353v0.005c0.152,0.038,0.331,0.164,0.331,0.402
		c0,0.138-0.055,0.243-0.136,0.321c-0.111,0.103-0.293,0.15-0.555,0.15c-0.143,0-0.252-0.01-0.321-0.02V26.224z M52.565,26.881
		h0.188c0.219,0,0.348-0.114,0.348-0.27c0-0.188-0.143-0.262-0.353-0.262c-0.095,0-0.15,0.008-0.184,0.015V26.881z M52.565,27.649
		c0.041,0.007,0.101,0.01,0.174,0.01c0.215,0,0.412-0.079,0.412-0.312c0-0.22-0.188-0.31-0.414-0.31h-0.172V27.649z"/>
	<path style="fill:#3B2314;" d="M53.917,26.202v0.671h0.776v-0.671h0.209v1.604h-0.209v-0.752h-0.776v0.752H53.71v-1.604H53.917z"/>
	<path style="fill:#3B2314;" d="M56.695,26.988c0,0.552-0.335,0.845-0.745,0.845c-0.424,0-0.721-0.329-0.721-0.814
		c0-0.509,0.316-0.843,0.745-0.843C56.412,26.176,56.695,26.512,56.695,26.988z M55.45,27.014c0,0.343,0.187,0.65,0.513,0.65
		c0.328,0,0.514-0.303,0.514-0.667c0-0.318-0.167-0.652-0.512-0.652C55.622,26.345,55.45,26.662,55.45,27.014z"/>
	<path style="fill:#3B2314;" d="M58.372,27.102c-0.012-0.224-0.026-0.492-0.024-0.692h-0.007c-0.055,0.188-0.121,0.388-0.202,0.609
		l-0.283,0.778h-0.157l-0.26-0.764c-0.076-0.227-0.141-0.434-0.186-0.624h-0.005c-0.005,0.2-0.017,0.469-0.03,0.71l-0.043,0.688
		h-0.198l0.112-1.604h0.265l0.273,0.776c0.066,0.197,0.121,0.373,0.162,0.54h0.007c0.04-0.162,0.098-0.338,0.169-0.54l0.285-0.776
		h0.265l0.1,1.604h-0.202L58.372,27.102z"/>
</g>
</svg>
